<?xml version="1.0" encoding="UTF-8" standalone="no"?>
<svg width="16px" height="16px" viewBox="0 0 16 16" version="1.1" xmlns="http://www.w3.org/2000/svg" xmlns:xlink="http://www.w3.org/1999/xlink" xmlns:sketch="http://www.bohemiancoding.com/sketch/ns">
    <!-- Generator: Sketch 3.3.1 (12002) - http://www.bohemiancoding.com/sketch -->
    <title>FAQ</title>
    <desc>Created with Sketch.</desc>
    <defs></defs>
    <g id="Page-1" stroke="none" stroke-width="1" fill="none" fill-rule="evenodd" sketch:type="MSPage">
        <g id="faq" sketch:type="MSLayerGroup" fill="#000000">
            <path d="M4.2,9.4 C4.9,11.3 6.4,12.6 8,12.6 C9.6,12.6 11.1,11.3 11.8,9.4 L12,8.5 L4,8.5 L4.2,9.4 L4.2,9.4 Z M10.6,9.5 C10,10.7 9,11.7 8,11.7 C7,11.7 6,10.7 5.4,9.5 L10.6,9.5 L10.6,9.5 Z M5.7,6.5 C6.1,6.5 6.5,6.1 6.5,5.7 C6.5,5.3 6.1,4.9 5.7,4.9 C5.3,4.9 5,5.3 5,5.7 C5,6.2 5.3,6.5 5.7,6.5 L5.7,6.5 Z M10.3,6.5 C10.7,6.5 11,6.1 11,5.7 C11,5.3 10.7,4.9 10.3,4.9 C9.9,4.9 9.5,5.3 9.5,5.7 C9.5,6.2 9.9,6.5 10.3,6.5 L10.3,6.5 Z M8,0.6 C3.8,0.6 0.3,4 0.3,8.3 C0.3,12.5 3.7,16 8,16 C12.3,16 15.7,12.6 15.7,8.3 C15.7,4 12.2,0.6 8,0.6 L8,0.6 Z M8,15 C4.3,15 1.3,12 1.3,8.3 C1.3,4.6 4.3,1.6 8,1.6 C11.7,1.6 14.7,4.6 14.7,8.3 C14.7,12 11.7,15 8,15 L8,15 Z" id="Shape" sketch:type="MSShapeGroup"></path>
        </g>
    </g>
</svg>
