<?xml version="1.0" encoding="UTF-8" standalone="no"?>
<svg width="15px" height="16px" viewBox="0 0 15 16" version="1.1" xmlns="http://www.w3.org/2000/svg" xmlns:xlink="http://www.w3.org/1999/xlink" xmlns:sketch="http://www.bohemiancoding.com/sketch/ns">
    <!-- Generator: Sketch 3.3.1 (12002) - http://www.bohemiancoding.com/sketch -->
    <title>Home</title>
    <desc>Created with Sketch.</desc>
    <defs></defs>
    <g id="Page-1" stroke="none" stroke-width="1" fill="none" fill-rule="evenodd" sketch:type="MSPage">
        <g id="home" sketch:type="MSLayerGroup" fill="#000000">
            <path d="M13.9,15.5 L10.6,15.5 C10,15.5 9.5,15 9.5,14.4 L9.5,10.6 C9.5,10 9,9.5 8.4,9.5 L6.6,9.5 C6,9.5 5.5,10 5.5,10.6 L5.5,14.4 C5.5,15 5,15.5 4.4,15.5 L1.1,15.5 C0.5,15.5 0,15 0,14.4 L0,6.5 C0,6.2 0.2,5.9 0.4,5.6 L6.7,0.7 C7.2,0.3 7.8,0.3 8.3,0.7 L14.6,5.6 C14.9,5.8 15,6.1 15,6.5 L15,14.4 C15,15 14.5,15.5 13.9,15.5 L13.9,15.5 Z M14,6.9 C14,6.6 13.9,6.3 13.6,6.2 L8.2,2 C7.8,1.7 7.2,1.7 6.8,2 L1.3,6.2 C1.1,6.4 1,6.7 1,6.9 L1,13.5 C1,14.4 1,14.4 1.9,14.4 L3.5,14.4 C4.5,14.4 4.5,14.4 4.5,13.5 L4.5,9.9 C4.5,9.4 5.4,8.5 5.9,8.5 L9,8.5 C9.5,8.5 10.4,9.4 10.4,9.9 L10.4,13.5 C10.4,14.3 10.4,14.4 11.3,14.4 L12.9,14.4 C13.8,14.4 13.8,14.4 13.8,13.5 L13.8,6.9 L14,6.9 Z" id="Shape" sketch:type="MSShapeGroup"></path>
        </g>
    </g>
</svg>
