<?xml version="1.0" encoding="UTF-8" standalone="no"?>
<svg xmlns="http://www.w3.org/2000/svg" xmlns:xlink="http://www.w3.org/1999/xlink">

	<symbol viewBox="0 0 32 32" id="svg-symbol-check">
		<title>Check</title>
		<desc>Created with Sketch.</desc>
		<g fill="none" fill-rule="evenodd">
			<path d="M16 1c8.28 0 15 6.72 15 15 0 8.28-6.72 15-15 15-8.28 0-15-6.72-15-15C1 7.72 7.72 1 16 1z" stroke="#000" stroke-width="2"/>
		</g>
	</symbol>

	<symbol viewBox="0 0 32 32" id="svg-symbol-checked">
		<title>Checked</title>
		<desc>Created with Sketch.</desc>
		<g fill="none" fill-rule="evenodd">
			<g transform="translate(1 1)">
				<path d="M15 0c8.28 0 15 6.72 15 15 0 8.28-6.72 15-15 15-8.28 0-15-6.72-15-15C0 6.72 6.72 0 15 0z" id="bShape" stroke="#000" stroke-width="2"/>
				<path d="M14 23l-8-6 2-3 5 4 6-9 3 2-8 12z" fill="#333"/>
			</g>
		</g>
	</symbol>

	<symbol viewBox="0 0 16 16" id="svg-symbol-faq">
		<title>FAQ</title>
		<desc>Created with Sketch.</desc>
		<g fill="none" fill-rule="evenodd">
			<g fill="#000">
				<path d="M4.2 9.4c.7 1.9 2.2 3.2 3.8 3.2 1.6 0 3.1-1.3 3.8-3.2l.2-.9H4l.2.9zm6.4.1C10 10.7 9 11.7 8 11.7s-2-1-2.6-2.2h5.2zm-4.9-3c.4 0 .8-.4.8-.8s-.4-.8-.8-.8-.7.4-.7.8c0 .5.3.8.7.8zm4.6 0c.4 0 .7-.4.7-.8s-.3-.8-.7-.8c-.4 0-.8.4-.8.8 0 .5.4.8.8.8zM8 .6C3.8.6.3 4 .3 8.3.3 12.5 3.7 16 8 16c4.3 0 7.7-3.4 7.7-7.7C15.7 4 12.2.6 8 .6zM8 15c-3.7 0-6.7-3-6.7-6.7s3-6.7 6.7-6.7 6.7 3 6.7 6.7S11.7 15 8 15z"/>
			</g>
		</g>
	</symbol>

	<symbol viewBox="0 0 15 16" id="svg-symbol-home">
		<title>Home</title>
		<desc>Created with Sketch.</desc>
		<g fill="none" fill-rule="evenodd">
			<g fill="#000">
				<path d="M13.9 15.5h-3.3c-.6 0-1.1-.5-1.1-1.1v-3.8c0-.6-.5-1.1-1.1-1.1H6.6c-.6 0-1.1.5-1.1 1.1v3.8c0 .6-.5 1.1-1.1 1.1H1.1C.5 15.5 0 15 0 14.4V6.5c0-.3.2-.6.4-.9L6.7.7C7.2.3 7.8.3 8.3.7l6.3 4.9c.3.2.4.5.4.9v7.9c0 .6-.5 1.1-1.1 1.1zm.1-8.6c0-.3-.1-.6-.4-.7L8.2 2c-.4-.3-1-.3-1.4 0L1.3 6.2c-.2.2-.3.5-.3.7v6.6c0 .9 0 .9.9.9h1.6c1 0 1 0 1-.9V9.9c0-.5.9-1.4 1.4-1.4H9c.5 0 1.4.9 1.4 1.4v3.6c0 .8 0 .9.9.9h1.6c.9 0 .9 0 .9-.9V6.9h.2z"/>
			</g>
		</g>
	</symbol>
</svg>
